# xmcd
#
# Track frame offsets:
#	150
#	16419
#	35143
#	52583
#	70010
#	90935
#	108623
#	123874
#	137668
#	156508
#	172593
#	185846
#	200557
#	219630
#	236125
#	253682
#	270759
#	288672
#	304498
#	321012
#
# Disc length: 4498 seconds
#
# Revision: 1
# Processed by: cddbd v1.5.2PL0 Copyright (c) Steve Scherf et al.
# Submitted via: audiograbber 1.83.01
#
DISCID=1f119014
DTITLE=Various Artist - ERG NCT 158
DYEAR=2007
DGENRE=Country
TTITLE0=Toby Keith - Love Me If You Can
TTITLE1=Tim McGraw - If You're Reading This
TTITLE2=Brad Paisley - Online
TTITLE3=Sugarland - Everyday America
TTITLE4=Keith Anderson - Sunday Morning In America
TTITLE5=Clint Black - Strong One, The
TTITLE6=Crossin' Dixon - Guitar Slinger
TTITLE7=Waycross - Nineteen
TTITLE8=Aaron Pritchett - Done You Wrong
TTITLE9=Jason Meadows - 18 Video Tapes
TTITLE10=Danielle Peck - Bad For Me
TTITLE11=Andy Griggs - Tattoo Rose
TTITLE12=Cook and Glenn - Shining Star
TTITLE13=Patricia Conroy - Ray Of Sun
TTITLE14=Alison Krauss and Uniton Station - Simple Love
TTITLE15=Carmen Rasmusen - Nothing' Like The Summer
TTITLE16=Adam Hood - 22 Days Too Long
TTITLE17=Josh Turner - Firecracker
TTITLE18=Flynnville Train - Nowhere Than Somewhere
TTITLE19=Phil Vassar - This Is My Life
EXTD=
EXTT0=
EXTT1=
EXTT2=
EXTT3=
EXTT4=
EXTT5=
EXTT6=
EXTT7=
EXTT8=
EXTT9=
EXTT10=
EXTT11=
EXTT12=
EXTT13=
EXTT14=
EXTT15=
EXTT16=
EXTT17=
EXTT18=
EXTT19=
PLAYORDER=
